<svg width="24" height="24" viewBox="0 0 24 24" fill="none" xmlns="http://www.w3.org/2000/svg">
<path d="M6.25 5.25C6.25 3.828 7.278 2.5 8.75 2.5C10.222 2.5 11.25 3.828 11.25 5.25C11.25 6.672 10.222 8 8.75 8C7.278 8 6.25 6.672 6.25 5.25ZM1 8.75C1 7.328 2.028 6 3.5 6C4.972 6 6 7.328 6 8.75C6 10.172 4.972 11.5 3.5 11.5C2.028 11.5 1 10.172 1 8.75ZM12 10C10.1435 10 8.36301 10.7375 7.05025 12.0503C5.7375 13.363 5 15.1435 5 17C5 18.36 5.72 19.388 6.7 20.044C7.663 20.689 8.898 21 10.078 21H13.922C15.102 21 16.337 20.689 17.299 20.044C18.28 19.388 19 18.361 19 17C19 15.1435 18.2625 13.363 16.9497 12.0503C15.637 10.7375 13.8565 10 12 10ZM12.75 5.25C12.75 3.828 13.778 2.5 15.25 2.5C16.722 2.5 17.75 3.828 17.75 5.25C17.75 6.672 16.722 8 15.25 8C13.778 8 12.75 6.672 12.75 5.25ZM18 8.75C18 7.328 19.028 6 20.5 6C21.972 6 23 7.328 23 8.75C23 10.172 21.972 11.5 20.5 11.5C19.028 11.5 18 10.172 18 8.75Z" fill="#1A1A1D"/>
</svg>
